<svg width="18" height="19" viewBox="0 0 18 19" fill="none" xmlns="http://www.w3.org/2000/svg">
<g clip-path="url(#clip0_0_22)">
<path d="M17.8626 11.1159C17.3723 13.6731 16.0117 15.6406 13.8012 17.0049C12.368 17.891 10.7911 18.279 9.10745 18.2451C5.68337 18.176 2.54691 15.9833 1.31115 12.7914C1.0228 12.0028 2.11234 11.5937 2.40771 12.3631C2.96153 13.7292 3.82549 14.8546 5.03466 15.7005C6.6496 16.8299 8.44545 17.2622 10.393 16.9853C13.5439 16.5382 16.0198 14.1981 16.6697 11.093C17.4934 7.1362 14.9462 3.18784 11.0015 2.30985C7.40796 1.51013 3.86019 3.34771 2.44463 6.74483C2.07542 7.56227 1.02206 7.11404 1.30266 6.41254C1.54671 5.80334 1.84208 5.22257 2.22311 4.68684C3.82475 2.42726 6.00717 1.16123 8.7722 0.970714C13.1481 0.670914 17.0322 3.68738 17.85 7.98575C18.0191 9.19825 18.0623 10.0552 17.8626 11.1159Z" fill="black"/>
<path d="M10.4183 10.1861H0.634173C-0.206524 10.1861 -0.209847 9.00459 0.629373 9.00459H10.463C10.3947 8.93075 8.94921 7.50079 8.36364 6.89011C7.77807 6.27944 8.61655 5.47012 9.21504 6.07046C9.81354 6.6708 11.8734 8.72362 12.3024 9.15228C12.5631 9.41073 12.5668 9.77514 12.3083 10.0329C11.2745 11.0666 9.85674 12.4549 9.20692 13.1257C8.55711 13.7966 7.71604 12.9633 8.35773 12.3076C8.99942 11.6518 10.4261 10.199 10.4183 10.1861Z" fill="black"/>
</g>
<defs>
<clipPath id="clip0_0_22">
<rect width="17.9925" height="17.2969" fill="white" transform="translate(0.00375366 0.950195)"/>
</clipPath>
</defs>
</svg>
